<svg width="1920" height="1080" viewBox="0 0 1920 1080" fill="none" xmlns="http://www.w3.org/2000/svg">
<g clip-path="url(#clip0_428_4503)">
<rect width="1920" height="1080" fill="black"/>
<path d="M-6.20798 83.141L-8.3765 80.2497C26.0787 56.1551 67.2804 30.133 111.132 5.07469C146.551 -15.4057 181.248 -34.1994 214.016 -50.3428L215.703 -47.2105C182.934 -31.0671 148.479 -12.5143 113.06 7.96603C69.208 33.2653 28.0063 59.2874 -6.20798 83.141Z" fill="white"/>
<path d="M121.975 173.255C189.841 173.255 244.857 118.238 244.857 50.3724C244.857 -17.4935 189.841 -72.5098 121.975 -72.5098C54.109 -72.5098 -0.907196 -17.4935 -0.907196 50.3724C-0.907196 118.238 54.109 173.255 121.975 173.255Z" fill="#7431F4"/>
<path d="M26.8016 231.564L23.1874 230.6C31.8614 197.35 49.4504 167.231 66.5576 138.077C70.6536 130.849 75.2316 123.379 79.3277 116.151C86.3151 103.863 93.3025 90.6107 95.9529 76.154C96.6758 72.7808 96.9167 69.1666 97.1577 65.5524C98.6033 26.2783 67.7623 -6.97219 28.2472 -8.41786H27.5244C22.7055 -8.65881 16.6819 -8.89975 13.3086 -13.2368L16.2 -15.4053C18.6094 -12.273 23.1874 -12.273 27.7654 -12.032H28.4882C69.9308 -10.5864 102.458 24.3507 100.772 65.7934C100.531 69.4075 100.29 73.2626 99.5671 76.8768C96.6758 91.8155 89.6883 105.308 82.46 117.838C78.3639 125.307 74.0269 132.535 69.6899 139.764C52.8237 168.918 35.2347 198.795 26.8016 231.564Z" fill="white"/>
<path d="M156.671 253.972V253.249C155.226 198.795 154.021 142.414 144.624 87.9603C134.263 26.5192 114.988 -25.5251 87.2789 -66.7267L90.1702 -68.6543C117.879 -26.9707 137.396 25.5554 147.997 87.4784C157.394 142.173 158.599 198.795 160.044 253.49V254.213L156.671 253.972Z" fill="white"/>
<path d="M-11.0269 100.971L-13.4363 98.3208C35.9575 51.3365 104.627 31.8199 165.104 18.5679C222.449 6.27968 289.914 -4.32193 355.692 10.6167L354.969 14.2309C289.914 -0.707749 222.931 9.89386 166.068 22.1821C105.832 35.1931 37.8851 54.7097 -11.0269 100.971Z" fill="white"/>
<path d="M259.073 150.365C249.676 128.68 236.183 109.645 218.594 93.7429C214.498 89.8878 209.92 86.2736 205.583 82.6594C196.427 75.1901 186.789 67.4799 179.32 57.842L179.079 57.6011C151.129 21.7002 157.635 -30.1031 193.536 -58.0527L195.704 -55.1614C161.49 -28.4164 155.225 20.9774 181.97 55.4326L182.211 55.6735C189.44 64.8295 198.837 72.5397 207.993 80.009C212.33 83.6232 216.908 87.2374 221.245 91.0925C239.075 107.236 253.049 126.752 262.687 148.919L259.073 150.365Z" fill="white"/>
<path d="M-92.4664 179.519C-98.9719 179.519 -103.068 177.833 -104.996 174.7C-108.851 168.195 -101.622 156.389 -83.0695 138.8C-66.2034 122.656 -40.4222 102.417 -8.37646 80.2498L-6.20794 83.1412C-58.4931 119.524 -108.369 161.448 -101.863 172.773C-100.177 175.664 -89.816 182.652 -22.3513 155.184C25.3559 135.908 85.8332 105.308 148.479 69.1664C210.884 33.0245 267.747 -4.08106 308.226 -35.6449C365.571 -80.2198 364.848 -92.749 363.161 -95.6403C361.716 -98.0498 354.487 -102.628 318.105 -90.8214C291.601 -82.3883 256.182 -67.2088 215.462 -47.2103L213.775 -50.3426C246.544 -66.4859 354.246 -117.566 366.053 -97.327C371.595 -87.4482 352.801 -65.7631 310.153 -32.5126C269.434 -0.948776 212.571 36.3978 149.925 72.5396C87.2789 108.681 26.5606 139.281 -21.1466 158.798C-54.8789 172.532 -78.7325 179.519 -92.4664 179.519Z" fill="white"/>
<path d="M126.553 346.736C94.0253 346.736 67.5213 320.232 67.5213 287.704C67.5213 255.176 94.0253 228.672 126.553 228.672C159.081 228.672 185.585 255.176 185.585 287.704C185.585 320.232 159.081 346.736 126.553 346.736ZM126.553 232.287C95.9529 232.287 71.1355 257.104 71.1355 287.704C71.1355 318.304 95.9529 343.121 126.553 343.121C157.153 343.121 181.97 318.304 181.97 287.704C181.97 257.104 156.912 232.287 126.553 232.287Z" fill="white"/>
<path d="M128.481 329.146C121.252 329.146 114.024 326.737 108 322.4C100.29 316.617 94.0253 309.389 89.4474 300.956L92.5797 299.269C96.9167 307.22 102.94 314.208 110.169 319.749C117.397 325.05 126.553 326.978 135.227 325.05L135.95 328.664C133.54 328.664 130.89 329.146 128.481 329.146Z" fill="white"/>
<path d="M243.412 273.007C222.449 273.007 205.583 255.899 205.583 235.178C205.583 214.216 222.69 197.35 243.412 197.35C264.374 197.35 281.24 214.457 281.24 235.178C281.481 255.899 264.374 273.007 243.412 273.007ZM243.412 200.723C224.377 200.723 209.197 216.143 209.197 234.937C209.197 253.731 224.618 269.151 243.412 269.151C262.205 269.151 277.626 253.731 277.626 234.937C277.626 216.143 262.446 200.723 243.412 200.723Z" fill="white"/>
<path d="M244.857 261.923C240.038 261.923 235.46 260.477 231.605 257.586C226.545 253.971 222.69 249.152 219.558 243.852L222.69 242.165C225.341 247.225 229.196 251.321 233.533 254.935C237.87 258.067 243.411 259.272 248.712 258.067L249.435 261.682C247.989 261.682 246.303 261.923 244.857 261.923Z" fill="white"/>
<path d="M295.461 1075.64L293.291 1075.5L297.486 1019.22C298.933 998.528 299.367 977.26 286.057 963.515C275.929 953.098 260.593 950.204 245.835 948.179C226.593 945.574 207.206 943.549 187.818 942.247C166.55 940.8 153.24 945.285 148.32 955.702C143.112 966.698 150.201 980.298 159.75 986.664C170.167 993.608 183.478 994.911 195.197 996.068L196.21 996.213V997.226C196.354 1019.65 215.597 1036.72 236.576 1051.91L235.274 1053.65C214.295 1038.31 194.763 1021.1 194.04 998.238C182.32 997.081 169.154 995.489 158.593 988.545C148.031 981.6 140.508 966.987 146.295 954.834C151.648 943.549 165.682 938.63 187.963 940.221C207.35 941.523 226.882 943.549 246.125 946.153C261.316 948.323 277.086 951.217 287.648 962.068C301.537 976.391 301.248 998.238 299.657 1019.36L295.461 1075.64Z" fill="white"/>
<path d="M262.763 948.323L260.593 947.744C266.814 922.425 273.035 897.106 279.257 871.787C281.571 862.527 284.031 852.11 282.874 841.983C281.571 831.131 275.35 822.161 267.103 818.978C256.397 814.927 244.099 821.148 237.444 829.54C230.499 838.366 227.461 849.651 224.712 861.514C218.635 888.28 213.716 915.625 210.099 942.825L207.929 942.536C211.546 915.336 216.61 887.846 222.686 861.08C225.435 849.072 228.474 837.497 235.708 828.238C245.546 815.795 259.291 813.625 267.827 816.953C276.797 820.28 283.597 830.119 285.044 841.693C286.346 852.255 283.742 862.817 281.427 872.221C275.061 897.685 268.984 923.004 262.763 948.323Z" fill="white"/>
<path d="M154.542 946.442C149.912 919.966 146.729 895.37 144.414 866.723C143.401 854.425 142.822 842.417 147.018 831.566C152.661 816.808 165.103 810.587 174.363 811.021C183.912 811.6 193.316 818.689 198.235 829.396C202.576 838.945 203.299 849.94 204.022 859.634C204.891 872.655 206.048 887.268 207.061 901.302C208.218 915.191 209.231 929.659 210.099 942.536L207.929 942.681C207.061 929.804 205.903 915.336 204.891 901.447C203.733 887.413 202.72 872.8 201.852 859.634C201.274 850.085 200.55 839.379 196.354 830.264C191.869 820.281 183.188 813.625 174.363 813.047C162.788 812.468 152.95 822.162 149.188 832.145C145.282 842.562 145.716 854.281 146.729 866.434C149.044 894.936 152.227 919.387 156.856 945.864L154.542 946.442Z" fill="white"/>
<path d="M155.265 1042.94C152.371 1042.94 149.188 1042.37 146.295 1040.92C140.218 1038.17 135.588 1033.4 130.959 1028.19C123.725 1019.94 114.899 1008.8 110.125 995.489C105.35 981.889 105.784 968 111.427 957.149C118.371 943.838 133.274 939.064 155.41 942.825L154.976 944.996C133.852 941.378 119.674 945.864 113.163 958.161C107.81 968.434 107.376 981.744 112.005 994.766C116.635 1007.79 125.316 1018.64 132.405 1026.74C136.746 1031.66 141.231 1036.29 147.018 1038.89C153.24 1041.64 160.04 1041.21 164.38 1037.59C167.708 1034.7 169.588 1030.07 170.312 1022.98C171.18 1014.15 168.72 1000.7 165.971 991.727L167.997 991.004C170.746 999.83 173.35 1013.57 172.482 1023.12C172.048 1027.9 170.746 1034.84 165.827 1039.18C163.078 1041.79 159.316 1042.94 155.265 1042.94Z" fill="white"/>
<path d="M132.406 1090.11C127.92 1090.11 123.146 1088.81 118.806 1086.2C112.874 1082.44 107.81 1077.81 103.903 1072.17C98.2608 1064.79 93.4864 1056.54 89.8694 1048.01C85.6736 1038.46 84.2268 1030.65 85.3842 1023.56C87.5545 1009.96 98.8396 999.974 110.269 991.004L111.571 992.74C100.431 1001.42 89.4353 1010.97 87.5545 1023.85C86.5417 1030.5 87.9885 1037.88 91.8949 1047C95.5119 1055.53 100.142 1063.49 105.784 1070.72C109.691 1076.22 114.465 1080.71 120.108 1084.18C126.04 1087.65 132.984 1088.66 138.627 1086.78C147.742 1083.89 152.806 1074.05 153.963 1065.66C155.12 1056.4 153.818 1051.05 151.359 1041.64L153.384 1041.06C155.844 1050.47 157.291 1056.25 155.989 1065.8C154.831 1074.92 149.188 1085.63 139.206 1088.81C137.035 1089.82 134.72 1090.11 132.406 1090.11Z" fill="white"/>
<path d="M1645.36 1149.05L1519.92 907.574L1193.81 942.442L1193.52 940.272L1521.23 905.115L1647.39 1148.03L1645.36 1149.05Z" fill="white"/>
<path d="M1468.85 1074.1L1466.83 1073.52L1519.63 905.838L1519.78 905.694L1815.94 559.328L1817.68 560.774L1521.51 906.851L1468.85 1074.1Z" fill="white"/>
<path d="M1728.12 932.315L1519.78 907.285L1519.63 906.706L1380.74 575.243L1382.77 574.375L1521.37 905.404L1728.41 930.145L1728.12 932.315Z" fill="white"/>
<path d="M1520.79 907.43H1520.36L1313.9 876.757L1314.33 874.587L1520.36 905.259L1850.95 690.698L1852.26 692.579L1520.79 907.43Z" fill="white"/>
<path d="M1552.04 751.464H1541.77L1537.43 740.468H1547.7L1552.04 751.464Z" fill="white"/>
<path d="M1544.37 757.685H1534.1L1541.77 751.464H1552.04L1544.37 757.685Z" fill="white"/>
<path d="M1547.7 740.468L1552.04 751.464L1544.37 757.685L1540.03 746.69L1547.7 740.468Z" fill="white"/>
<path d="M1540.03 746.69H1529.76L1537.43 740.468H1547.7L1540.03 746.69Z" fill="white"/>
<path d="M1544.37 757.685H1534.1L1529.76 746.689H1540.03L1544.37 757.685Z" fill="white"/>
<path d="M1529.47 769.983H1519.2L1526.14 764.196H1536.42L1529.47 769.983Z" fill="white"/>
<path d="M1509.65 646.859H1518.91C1516.89 647.149 1515.15 647.872 1513.56 649.174H1503.29C1504.88 647.872 1506.61 647.149 1508.64 646.859H1509.65Z" fill="white"/>
<path d="M1513.56 649.03H1503.29L1504.15 648.306H1514.43C1514.14 648.596 1513.85 648.885 1513.56 649.03Z" fill="white"/>
<path d="M1514.43 648.451H1504.15C1505.02 647.872 1505.89 647.438 1506.76 647.149H1517.03C1516.16 647.438 1515.29 647.872 1514.43 648.451Z" fill="white"/>
<path d="M1517.03 647.149H1506.76C1507.34 647.004 1507.91 646.86 1508.64 646.715H1518.91C1518.19 646.86 1517.61 647.004 1517.03 647.149Z" fill="white"/>
<path d="M1536.42 764.196H1526.14L1502.27 706.613H1512.54L1536.42 764.196Z" fill="white"/>
<path d="M1525.86 758.119L1515.58 757.974L1499.96 719.923H1510.23L1525.86 758.119Z" fill="white"/>
<path d="M1501.26 727.302H1490.99L1499.96 719.923H1510.23L1501.26 727.302Z" fill="white"/>
<path d="M1497.93 718.766H1487.66L1502.27 706.613H1512.54L1497.93 718.766Z" fill="white"/>
<path d="M1501.26 727.302H1490.99L1487.66 718.766H1497.93L1501.26 727.302Z" fill="white"/>
<path d="M1497.35 796.46H1487.08L1493.01 791.541H1503.29L1497.35 796.46Z" fill="white"/>
<path d="M1525.86 758.119L1515.58 757.974L1484.91 743.94H1495.18L1525.86 758.119Z" fill="white"/>
<path d="M1529.47 769.983H1519.2L1480.71 752.332H1490.99L1529.47 769.983Z" fill="white"/>
<path d="M1493.88 709.94H1483.61L1480.28 701.404H1490.55L1493.88 709.94Z" fill="white"/>
<path d="M1483.03 718.911H1472.76L1483.61 709.94H1493.88L1483.03 718.911Z" fill="white"/>
<path d="M1495.18 743.94H1484.91L1472.76 718.911H1483.03L1495.18 743.94Z" fill="white"/>
<path d="M1490.99 752.332H1480.71L1462.92 715.728H1473.19L1490.99 752.332Z" fill="white"/>
<path d="M1473.19 715.728H1462.92L1480.28 701.404H1490.55L1473.19 715.728Z" fill="white"/>
<path d="M1503.29 791.54H1493.01L1455.83 721.515H1466.1L1503.29 791.54Z" fill="white"/>
<path d="M1497.35 796.46H1487.08L1454.09 734.247H1464.37L1497.35 796.46Z" fill="white"/>
<path d="M1468.56 793.276H1458.29L1451.92 736.127H1462.2L1468.56 793.276Z" fill="white"/>
<path d="M1462.2 736.128H1451.92L1454.09 734.247H1464.37L1462.2 736.128Z" fill="white"/>
<path d="M1461.91 798.774H1451.63L1458.29 793.276H1468.56L1461.91 798.774Z" fill="white"/>
<path d="M1459.45 772.587H1449.17L1444.4 730.919H1454.67L1459.45 772.587Z" fill="white"/>
<path d="M1454.67 730.919H1444.4L1455.83 721.515H1466.1L1454.67 730.919Z" fill="white"/>
<path d="M1459.45 772.587H1449.17L1435.57 738.153H1445.7L1459.45 772.587Z" fill="white"/>
<path d="M1439.91 743.072H1429.64L1435.57 738.153H1445.7L1439.91 743.072Z" fill="white"/>
<path d="M1466.1 721.515L1503.29 791.54L1497.35 796.459L1464.37 734.247L1462.2 736.127L1468.56 793.276L1461.91 798.774L1439.91 743.072L1445.7 738.153L1459.45 772.587L1454.67 730.919L1466.1 721.515Z" fill="white"/>
<path d="M1461.91 798.774H1451.63L1429.64 743.072H1439.91L1461.91 798.774Z" fill="white"/>
<path d="M1673.86 1026.36C1677.34 1035.47 1675.17 1046.9 1668.8 1051.97L1518.33 1172.92C1516.74 1174.22 1514.86 1174.94 1512.98 1175.23C1508.06 1175.81 1503.14 1172.34 1500.54 1165.69L1363.96 811.217L1357.88 795.592C1354.41 786.477 1356.58 775.047 1362.94 769.983L1513.41 649.03C1515 647.728 1516.74 647.005 1518.77 646.715C1523.69 646.136 1528.6 649.609 1531.21 656.264L1673.86 1026.36ZM1497.35 796.315L1503.29 791.396L1466.1 721.37L1454.67 730.775L1459.45 772.587L1445.7 738.153L1439.77 743.073L1461.91 798.63L1468.71 792.988L1462.2 735.839L1464.37 734.102L1497.35 796.315ZM1529.47 769.983L1536.42 764.196L1512.69 706.613L1497.93 718.766L1501.4 727.302L1510.23 719.924L1526 757.975L1495.33 743.796L1483.17 718.766L1494.03 709.796L1490.7 701.26L1473.34 715.583L1491.13 752.188L1529.47 769.983ZM1544.37 757.685L1551.9 751.464L1547.56 740.468L1540.03 746.69L1544.37 757.685Z" fill="black"/>
<path d="M1511.97 1176.39C1506.76 1176.39 1501.98 1172.49 1499.52 1165.97L1356.87 796.026C1353.25 786.621 1355.57 774.468 1362.22 769.26L1512.69 648.306C1514.43 646.86 1516.45 645.992 1518.62 645.702C1524.26 645.123 1529.47 649.175 1532.22 655.975L1674.88 1025.92C1678.49 1035.47 1676.18 1047.48 1669.52 1052.83L1519.06 1173.79C1517.32 1175.23 1515.29 1176.1 1513.12 1176.39C1512.69 1176.39 1512.4 1176.39 1511.97 1176.39ZM1519.78 647.872C1519.49 647.872 1519.2 647.872 1518.91 647.872C1517.17 648.162 1515.58 648.74 1514.14 649.898L1363.67 770.851C1357.74 775.626 1355.57 786.621 1358.89 795.158L1501.55 1165.11C1503.86 1171.04 1508.2 1174.51 1512.83 1174.08C1514.57 1173.93 1516.31 1173.21 1517.61 1172.05L1668.08 1051.1C1674.01 1046.32 1676.18 1035.33 1672.85 1026.79L1530.2 656.843C1528.03 651.2 1524.12 647.872 1519.78 647.872ZM1461.47 800.655L1438.61 742.928L1446.28 736.562L1457.42 764.775L1453.51 730.485L1466.39 719.779L1504.59 791.685L1497.93 797.183L1497.21 796.46L1496.2 797.038L1463.93 736.128L1463.21 736.706L1469.72 793.855L1461.47 800.655ZM1441.22 743.506L1462.49 797.038L1467.69 792.843L1461.18 735.694L1464.8 732.655L1497.64 794.723L1501.84 791.251L1465.67 723.251L1455.69 731.498L1461.33 780.834L1445.12 740.179L1441.22 743.506ZM1528.89 770.996L1489.97 753.055L1471.6 715.294L1490.84 699.523L1495.04 710.23L1484.19 719.2L1495.91 743.072L1523.69 755.804L1509.51 721.66L1500.54 729.038L1496.34 718.332L1512.83 704.732L1537.43 764.485L1529.91 770.851L1529.18 769.983L1528.89 770.996ZM1491.71 751.464L1529.18 768.826L1535.11 763.906L1512.26 708.349L1499.23 719.055L1501.84 725.421L1510.66 718.043L1528.03 760.145L1494.46 744.664L1481.73 718.477L1492.72 709.506L1490.12 703.14L1474.64 716.017L1491.71 751.464ZM1545.1 758.553L1544.37 757.685L1543.36 758.119L1538.73 746.4L1548.14 738.732L1553.34 751.753L1545.1 758.553ZM1541.34 746.979L1544.81 755.804L1550.6 751.03L1547.12 742.204L1541.34 746.979Z" fill="white"/>
<path d="M1490.55 701.404L1493.88 709.94L1483.03 718.911L1495.18 743.94L1525.86 758.119L1510.23 719.923L1501.26 727.302L1497.93 718.766L1512.54 706.613L1536.42 764.196L1529.47 769.983L1490.99 752.332L1473.19 715.728L1490.55 701.404Z" fill="white"/>
<path d="M1500.68 1165.68H1490.41L1353.69 811.217H1363.96L1500.68 1165.68Z" fill="white"/>
<path d="M1362.94 769.983H1352.67L1503.29 649.03H1513.56L1362.94 769.983Z" fill="white"/>
<path d="M1363.96 811.217H1353.69L1347.75 795.591H1357.88L1363.96 811.217Z" fill="white"/>
<path d="M1357.88 795.591H1347.61C1344.14 786.477 1346.31 775.047 1352.67 769.983H1362.94C1356.72 775.047 1354.41 786.477 1357.88 795.591Z" fill="white"/>
<path d="M1357.88 795.591H1347.61C1347.32 794.868 1347.03 794.144 1346.89 793.276H1357.16C1357.45 794.144 1357.59 794.868 1357.88 795.591Z" fill="white"/>
<path d="M1357.16 793.421H1346.89C1346.6 792.264 1346.31 790.962 1346.16 789.804H1356.43C1356.58 790.962 1356.87 792.119 1357.16 793.421Z" fill="white"/>
<path d="M1356.43 789.66H1346.16C1346.02 788.502 1346.02 787.489 1346.02 786.332H1356.29C1356.29 787.489 1356.29 788.647 1356.43 789.66Z" fill="white"/>
<path d="M1356.29 786.477H1346.02C1346.02 785.319 1346.02 784.162 1346.16 783.149H1356.43C1356.43 784.162 1356.29 785.319 1356.29 786.477Z" fill="white"/>
<path d="M1356.58 783.149H1346.31C1346.45 781.847 1346.74 780.545 1347.17 779.243H1357.45C1357.01 780.545 1356.72 781.847 1356.58 783.149Z" fill="white"/>
<path d="M1357.3 779.098H1347.03C1347.9 775.481 1349.92 772.298 1352.67 769.983H1362.94C1360.2 772.442 1358.17 775.625 1357.3 779.098Z" fill="white"/>
<path d="M1539.17 939.058C1544.34 933.023 1548.1 925.916 1550.16 918.254C1552.23 910.592 1552.56 902.567 1551.12 894.763C1549.68 886.958 1546.52 879.571 1541.86 873.139C1537.2 866.706 1531.16 861.389 1524.18 857.575C1517.2 853.76 1509.45 851.545 1501.5 851.088C1493.55 850.632 1485.6 851.947 1478.23 854.937C1470.85 857.927 1464.24 862.518 1458.87 868.375C1453.5 874.232 1449.5 881.208 1447.18 888.796C1438.88 883.394 1429.27 880.352 1419.37 879.997C1409.46 879.643 1399.65 881.989 1390.99 886.784C1382.33 891.579 1375.14 898.64 1370.21 907.205C1365.28 915.771 1362.79 925.515 1363.01 935.387C1363.23 945.259 1366.15 954.884 1371.46 963.223C1376.77 971.562 1384.26 978.299 1393.12 982.707C1401.99 987.115 1411.89 989.027 1421.77 988.235C1431.65 987.444 1441.12 983.98 1449.17 978.217C1452.05 984.173 1456.57 989.191 1462.2 992.692C1467.83 996.193 1474.35 998.033 1480.98 998C1487.62 997.966 1494.11 996.06 1499.7 992.502C1505.3 988.943 1509.77 983.879 1512.59 977.895C1515.15 979.634 1518.03 980.854 1521.06 981.485C1524.09 982.116 1527.22 982.146 1530.26 981.573C1533.31 981 1536.21 979.835 1538.8 978.144C1541.39 976.454 1543.62 974.272 1545.37 971.722C1547.11 969.172 1548.34 966.304 1548.97 963.282C1549.61 960.261 1549.63 957.144 1549.06 954.111C1548.48 951.078 1547.32 948.188 1545.62 945.605C1543.92 943.022 1541.73 940.798 1539.17 939.058Z" fill="#7431F4"/>
<path d="M1151.7 1013.08C1240.9 967.979 1303.8 1002.88 1303.8 1002.88C1347.9 989.179 1386.8 998.779 1406.8 1014.48C1419.3 1024.18 1391.3 1022.48 1328.5 1022.48H1154C1152.67 1022.48 1151.4 1021.95 1150.46 1021.01C1149.53 1020.08 1149 1018.81 1149 1017.48C1149 1016.57 1149.25 1015.67 1149.72 1014.9C1150.2 1014.12 1150.89 1013.49 1151.7 1013.08Z" fill="#7431F4"/>
<path d="M1558.26 124.922L1657.25 218.258C1669.65 203.209 1674.95 183.587 1671.94 164.291C1710.45 166.852 1743.58 137.768 1746.14 99.2616C1746.37 95.5629 1746.34 91.7877 1745.98 88.0224C1764.13 88.8316 1781.89 82.268 1795.29 69.9589L1696.3 -23.3778C1685.12 -9.79133 1679.59 7.48911 1680.94 25.0705C1642.52 22.5915 1609.31 51.7615 1606.92 90.2629C1606.58 95.811 1606.83 101.426 1607.83 106.934C1589.59 106.044 1571.66 112.445 1558.26 124.922Z" fill="#7431F4"/>
<path d="M1627.35 474.38L1623.49 473.279L1723.96 154.251L1724.24 153.975L2287.7 -505L2291 -502.247L1727.54 156.177L1627.35 474.38Z" fill="white"/>
<path d="M1816.1 186.505C1918.11 186.505 2000.8 103.811 2000.8 1.80431C2000.8 -100.203 1918.11 -182.896 1816.1 -182.896C1714.09 -182.896 1631.4 -100.203 1631.4 1.80431C1631.4 103.811 1714.09 186.505 1816.1 186.505Z" fill="black"/>
<path d="M1816.1 188.432C1713.15 188.432 1629.2 104.477 1629.2 1.52931C1629.2 -101.418 1713.15 -185.373 1816.1 -185.373C1919.05 -185.373 2003 -101.418 2003 1.52931C2003 104.477 1919.05 188.432 1816.1 188.432ZM1816.1 -180.969C1715.36 -180.969 1633.33 -98.941 1633.33 1.8046C1633.33 102.55 1715.36 184.578 1816.1 184.578C1916.85 184.578 1998.88 102.55 1998.88 1.8046C1998.88 -98.941 1916.85 -180.969 1816.1 -180.969Z" fill="white"/>
<path d="M1691.41 -101.419C1699.67 -98.9412 1708.2 -99.767 1716.73 -100.042C1731.32 -100.593 1745.91 -99.2165 1760.22 -95.9133C1765.73 -95.0875 1770.96 -92.8855 1775.36 -89.3071C1779.77 -85.7287 1781.69 -79.9482 1779.77 -74.4429C1777.29 -68.6625 1769.86 -63.983 1772.89 -58.4778C1773.99 -56.8263 1775.36 -55.7252 1777.01 -54.8994C1784.72 -50.4952 1791.6 -44.7147 1796.83 -37.2827C1802.06 -29.8506 1803.44 -20.4917 1800.69 -11.9586C1797.11 -3.15029 1788.02 2.35491 1779.22 6.20856C1768.48 10.888 1757.2 14.4664 1745.63 16.6685C1738.75 17.4943 1732.15 19.1458 1725.54 21.3479C1719.21 24.1006 1713.43 29.3305 1712.05 35.9368C1710.68 42.5431 1715.36 50.8009 1722.51 51.0762C1726.37 51.3514 1730.22 49.1494 1734.07 48.5988C1745.63 46.9473 1753.89 59.0587 1764.35 64.0134C1771.51 67.3166 1779.77 67.5918 1787.2 70.6197C1794.63 73.6476 1801.51 80.8044 1799.59 88.2364C1797.38 96.219 1786.92 98.9716 1782.79 106.128C1780.04 110.533 1779.77 116.313 1775.91 119.341C1773.16 121.543 1769.03 121.543 1765.73 122.644C1757.47 125.121 1752.24 132.829 1749.49 140.811C1746.74 148.794 1746.46 157.327 1745.08 165.86C1743.43 176.32 1715.63 157.327 1710.68 153.198C1704.62 148.519 1696.64 143.564 1693.06 136.682C1689.48 129.801 1690.86 120.993 1687.55 113.836C1684.8 107.505 1679.02 103.101 1675.72 97.0448C1674.07 93.7416 1672.97 90.1633 1671.31 86.5849C1669.39 82.456 1666.36 78.8775 1664.43 75.0239C1662.23 70.895 1661.96 66.2155 1664.16 62.0866C1669.66 54.104 1684.25 58.7835 1690.31 51.0762C1693.61 47.2225 1693.06 41.1667 1695.26 36.4873C1696.91 33.1842 1700.22 29.881 1699.67 26.3026C1698.56 20.7974 1691.13 20.5222 1685.63 20.5222C1679.57 20.5222 1673.52 19.1459 1667.74 16.3933C1666.08 15.8427 1664.71 14.4664 1664.16 13.0901C1663.88 11.1633 1664.43 9.51172 1664.98 7.86015C1666.36 2.07967 1661.4 -3.42558 1655.9 -6.17818C1650.39 -8.9308 1644.34 -10.0318 1639.93 -14.1607C1634.7 -19.3907 1631.95 -26.8228 1633.05 -34.2548C1634.15 -41.6869 1636.36 -48.5684 1639.66 -55.1747C1645.71 -69.7635 1652.6 -83.8018 1660.58 -97.5649C1663.06 -101.419 1669.39 -114.356 1674.62 -113.53C1676.54 -113.255 1679.3 -107.75 1680.95 -106.373C1684.53 -104.171 1687.83 -102.52 1691.41 -101.419Z" fill="white"/>
<path d="M1988.97 -61.5056C1986.21 -70.8644 1981.53 -79.3976 1976.85 -88.7564C1971.9 -98.6658 1966.39 -108.025 1960.06 -116.833C1956.48 -122.063 1952.63 -127.018 1948.23 -131.422C1942.72 -136.377 1936.94 -140.781 1930.61 -144.634L1910.79 -157.572C1905.56 -161.15 1900.06 -164.729 1894.28 -167.756C1879.96 -175.188 1863.72 -178.216 1847.76 -181.244C1831.24 -181.244 1814.73 -183.446 1797.93 -183.171C1794.91 -183.171 1791.88 -182.896 1789.13 -182.07C1785 -180.694 1781.97 -182.345 1777.84 -181.519C1774.81 -180.143 1772.06 -178.216 1769.58 -176.014C1775.36 -174.363 1779.77 -169.133 1780.59 -163.352C1781.14 -160.6 1780.59 -157.572 1780.87 -154.544C1781.69 -147.662 1787.47 -142.157 1793.81 -138.579C1800.14 -135 1806.74 -132.523 1812.25 -128.394C1813.9 -127.293 1815.28 -125.641 1816.1 -123.99C1817.2 -121.237 1815.83 -117.934 1816.1 -114.631C1816.93 -107.474 1825.19 -104.446 1832.07 -102.52L1847.76 -98.3906C1851.06 -87.6554 1841.7 -74.9934 1847.76 -65.6345C1849.41 -62.8819 1852.44 -60.6798 1852.99 -57.3766C1853.81 -52.6972 1849.41 -48.8436 1847.48 -44.4394C1845.28 -39.7599 1845.83 -33.9795 1848.86 -29.5753C1854.36 -22.4185 1859.32 -24.8958 1866.47 -25.7216C1875.28 -26.8226 1885.74 -23.7948 1894 -21.3174C1896.48 -20.4917 1899.23 -19.1153 1899.23 -16.638C1899.23 -15.5369 1898.68 -14.1606 1897.85 -13.3349C1895.65 -10.0317 1892.9 -6.72859 1890.15 -3.97598C1892.07 0.152939 1898.68 -1.49864 1901.71 1.52924C1902.81 2.90555 1903.63 4.28186 1904.46 5.93344C1909.14 12.815 1921.25 7.86024 1927.86 13.0902C1930.06 15.017 1931.44 17.4944 1932.54 19.9717L1941.9 40.3411C1942.72 41.7174 1943 43.0937 1942.72 44.7452C1942.45 45.571 1941.9 46.3968 1941.07 46.9473C1930.61 57.132 1912.44 60.1599 1907.49 73.9229C1907.21 74.7487 1906.94 75.5745 1907.21 76.125C1907.49 77.2261 1908.86 77.7766 1909.97 78.6024C1917.4 84.1076 1908.86 98.6964 1916.3 104.202C1920.15 106.954 1925.66 105.027 1930.33 106.129C1939.69 108.606 1939.97 120.167 1946.3 125.672C1952.63 131.177 1959.24 120.442 1963.92 114.937C1967.5 110.533 1970.25 105.578 1972.45 100.348C1977.96 88.2365 1986.49 77.7766 1990.34 64.5641C1992.54 57.132 1993.09 49.4247 1995.85 42.2679C1998.05 36.4874 2001.35 30.1564 1999.43 24.1006C1997.5 23.8254 1996.67 26.3028 1995.57 27.9543C1993.37 31.2575 1989.79 33.4595 1985.66 34.0101C1976.3 35.6616 1966.67 33.7348 1958.96 28.5049C1947.13 19.6965 1961.71 10.6129 1959.79 -1.49861C1958.96 -6.17805 1956.21 -10.5823 1954.56 -14.9864C1952.91 -19.3906 1953.18 -25.4464 1957.04 -28.4742C1960.06 -30.1258 1963.09 -30.6763 1966.39 -30.6763C1973.55 -31.5021 1980.43 -33.4289 1987.04 -36.4568C1990.34 -37.0073 1992.54 -40.3105 1991.72 -43.3383C1991.72 -43.6136 1991.72 -43.8888 1991.44 -44.1641L1991.17 -50.2199C1990.89 -53.7983 1990.07 -57.6519 1988.97 -61.5056Z" fill="white"/>
<path d="M1936.71 330.726C2001.48 330.726 2053.98 278.226 2053.98 213.464C2053.98 148.703 2001.48 96.2031 1936.71 96.2031C1871.95 96.2031 1819.45 148.703 1819.45 213.464C1819.45 278.226 1871.95 330.726 1936.71 330.726Z" fill="#7431F4"/>
<path d="M1920.28 1083.49H1071V1081.32H1419.54L1418.96 1079.88C1428.22 1076.69 1437.33 1069.61 1446.59 1058.03C1448.62 1055.57 1450.5 1052.97 1452.38 1050.51C1459.9 1040.81 1467.57 1030.69 1478.28 1024.46C1492.31 1016.22 1509.09 1015.78 1525.3 1015.35C1536.73 1015.06 1548.59 1014.77 1559.44 1011.59C1588.67 1003.34 1608.49 976.576 1624.84 952.124C1630.05 944.456 1635.11 936.499 1640.17 928.831C1663.03 893.673 1686.76 857.358 1716.57 827.12C1758.09 784.729 1806.7 761.29 1853.29 761.001C1890.91 760.856 1910.87 776.337 1919.41 785.597L1919.7 785.886V786.32L1920.28 1083.49ZM1421.27 1081.32H1917.96L1917.67 786.61C1909.28 777.639 1890.04 763.027 1854.3 763.027C1854.01 763.027 1853.72 763.027 1853.43 763.027C1807.43 763.316 1759.39 786.61 1718.16 828.567C1688.79 858.661 1665.06 894.831 1642.2 929.988C1637.14 937.656 1631.93 945.614 1626.86 953.427C1610.37 978.167 1590.26 1005.37 1560.31 1013.76C1549.21 1016.93 1537.25 1017.23 1525.72 1017.52C1525.67 1017.52 1525.63 1017.52 1525.59 1017.52C1508.95 1017.95 1493.32 1018.39 1479.72 1026.35C1469.45 1032.34 1461.99 1042 1454.7 1051.43C1454.6 1051.55 1454.5 1051.68 1454.4 1051.81C1452.52 1054.27 1450.5 1056.87 1448.47 1059.33C1439.36 1070.62 1430.53 1077.85 1421.27 1081.32Z" fill="white"/>
<path d="M1421.27 1081.32H1917.96L1917.67 786.61C1909.28 777.639 1890.04 763.027 1854.3 763.027H1853.43C1807.43 763.316 1759.39 786.61 1718.16 828.567C1688.79 858.661 1665.06 894.831 1642.2 929.988C1637.14 937.656 1631.93 945.614 1626.86 953.427C1610.37 978.167 1590.26 1005.37 1560.31 1013.76C1549.21 1016.93 1537.25 1017.23 1525.72 1017.52L1525.59 1017.52C1508.95 1017.95 1493.32 1018.39 1479.72 1026.35C1469.45 1032.34 1461.99 1042 1454.7 1051.43L1454.4 1051.81C1452.52 1054.27 1450.5 1056.87 1448.47 1059.33C1439.36 1070.62 1430.53 1077.85 1421.27 1081.32Z" fill="black"/>
<path d="M1783.84 923.333H1696.46V1081.47H1783.84V923.333Z" fill="white"/>
<path d="M1810.32 924.49H1725.25V1082.34H1810.32V924.49Z" fill="black"/>
<path d="M1809.16 925.503V1081.18H1726.26V925.648L1809.16 925.503ZM1811.48 923.333H1724.09V1083.35H1811.48V923.333Z" fill="white"/>
<path d="M1744.2 944.746H1768.36C1768.94 944.746 1769.52 945.324 1769.52 945.903V970.065C1769.52 970.643 1768.94 971.222 1768.36 971.222H1744.2C1743.62 971.222 1743.04 970.643 1743.04 970.065V945.903C1743.04 945.18 1743.62 944.746 1744.2 944.746Z" fill="black"/>
<path d="M1768.36 972.235H1744.2C1743.04 972.235 1742.03 971.222 1742.03 970.065V945.903C1742.03 944.746 1743.04 943.733 1744.2 943.733H1768.36C1769.52 943.733 1770.53 944.746 1770.53 945.903V970.065C1770.53 971.222 1769.52 972.235 1768.36 972.235ZM1744.2 945.758V969.92H1768.36V945.758H1744.2Z" fill="white"/>
<path d="M1744.2 992.201H1768.36C1768.94 992.201 1769.52 992.78 1769.52 993.359V1017.52C1769.52 1018.1 1768.94 1018.68 1768.36 1018.68H1744.2C1743.62 1018.68 1743.04 1018.1 1743.04 1017.52V993.359C1743.04 992.78 1743.62 992.201 1744.2 992.201Z" fill="black"/>
<path d="M1768.36 1019.69H1744.2C1743.04 1019.69 1742.03 1018.68 1742.03 1017.52V993.359C1742.03 992.201 1743.04 991.188 1744.2 991.188H1768.36C1769.52 991.188 1770.53 992.201 1770.53 993.359V1017.52C1770.53 1018.68 1769.52 1019.69 1768.36 1019.69ZM1744.2 993.359V1017.52H1768.36V993.359H1744.2Z" fill="white"/>
<path d="M1744.2 1039.8H1768.36C1768.94 1039.8 1769.52 1040.38 1769.52 1040.96V1065.12C1769.52 1065.7 1768.94 1066.28 1768.36 1066.28H1744.2C1743.62 1066.28 1743.04 1065.7 1743.04 1065.12V1040.96C1743.04 1040.23 1743.62 1039.8 1744.2 1039.8Z" fill="black"/>
<path d="M1768.36 1067.29H1744.2C1743.04 1067.29 1742.03 1066.28 1742.03 1065.12V1040.96C1742.03 1039.8 1743.04 1038.79 1744.2 1038.79H1768.36C1769.52 1038.79 1770.53 1039.8 1770.53 1040.96V1065.12C1770.53 1066.28 1769.52 1067.29 1768.36 1067.29ZM1744.2 1040.81V1064.98H1768.36V1040.81H1744.2Z" fill="white"/>
<path d="M1785.43 944.746H1809.6C1810.17 944.746 1810.75 945.324 1810.75 945.903V970.065C1810.75 970.643 1810.17 971.222 1809.6 971.222H1785.43C1784.86 971.222 1784.28 970.643 1784.28 970.065V945.903C1784.28 945.18 1784.86 944.746 1785.43 944.746Z" fill="black"/>
<path d="M1809.6 972.235H1785.43C1784.28 972.235 1783.26 971.222 1783.26 970.065V945.903C1783.26 944.746 1784.28 943.733 1785.43 943.733H1809.6C1810.75 943.733 1811.77 944.746 1811.77 945.903V970.065C1811.77 971.222 1810.75 972.235 1809.6 972.235ZM1785.43 945.758V969.92H1809.6V945.758H1785.43Z" fill="white"/>
<path d="M1785.43 992.201H1809.6C1810.17 992.201 1810.75 992.78 1810.75 993.359V1017.52C1810.75 1018.1 1810.17 1018.68 1809.6 1018.68H1785.43C1784.86 1018.68 1784.28 1018.1 1784.28 1017.52V993.359C1784.28 992.78 1784.86 992.201 1785.43 992.201Z" fill="black"/>
<path d="M1809.6 1019.69H1785.43C1784.28 1019.69 1783.26 1018.68 1783.26 1017.52V993.359C1783.26 992.201 1784.28 991.188 1785.43 991.188H1809.6C1810.75 991.188 1811.77 992.201 1811.77 993.359V1017.52C1811.77 1018.68 1810.75 1019.69 1809.6 1019.69ZM1785.43 993.359V1017.52H1809.6V993.359H1785.43Z" fill="white"/>
<path d="M1785.43 1039.8H1809.6C1810.17 1039.8 1810.75 1040.38 1810.75 1040.96V1065.12C1810.75 1065.7 1810.17 1066.28 1809.6 1066.28H1785.43C1784.86 1066.28 1784.28 1065.7 1784.28 1065.12V1040.96C1784.28 1040.23 1784.86 1039.8 1785.43 1039.8Z" fill="black"/>
<path d="M1809.6 1067.29H1785.43C1784.28 1067.29 1783.26 1066.28 1783.26 1065.12V1040.96C1783.26 1039.8 1784.28 1038.79 1785.43 1038.79H1809.6C1810.75 1038.79 1811.77 1039.8 1811.77 1040.96V1065.12C1811.77 1066.28 1810.75 1067.29 1809.6 1067.29ZM1785.43 1040.81V1064.98H1809.6V1040.81H1785.43Z" fill="white"/>
<path d="M1918.97 821.043H1798.02V1082.48H1918.97V821.043Z" fill="black"/>
<path d="M1920.13 1083.49H1797.01V819.886H1920.13V1083.49ZM1799.18 1081.32H1917.96V822.056H1799.18V1081.32Z" fill="white"/>
<path d="M1918.97 852.873H1825.8V1082.48H1918.97V852.873Z" fill="black"/>
<path d="M1920.13 1083.49H1824.79V851.716H1920.13V1083.49ZM1826.96 1081.32H1917.96V853.886H1826.96V1081.32Z" fill="white"/>
<path d="M1846.83 852.137L1845.29 853.671L1918.66 927.013L1920.19 925.478L1846.83 852.137Z" fill="white"/>
<path d="M1826.65 883.551L1825.09 885.061L1918.31 981.281L1919.87 979.771L1826.65 883.551Z" fill="white"/>
</g>
<defs>
<clipPath id="clip0_428_4503">
<rect width="1920" height="1080" fill="white"/>
</clipPath>
</defs>
</svg>
