<svg width="1920" height="1080" viewBox="0 0 1920 1080" fill="none" xmlns="http://www.w3.org/2000/svg">
<g clip-path="url(#clip0_428_5715)">
<rect width="1920" height="1080" fill="black"/>
<path d="M1843.43 1068.71L1841.04 1071.34L1946.45 1167.04L1948.84 1164.41L1843.43 1068.71Z" fill="white"/>
<path d="M1966.08 902.932L1963.08 904.841L1914.15 826.45C1896.04 797.725 1876.03 769.216 1845.14 763.945C1821.69 759.989 1798.63 771.01 1777.18 782.617C1749.25 797.801 1721.68 813.889 1694.82 830.933C1665.33 849.605 1652.09 868.411 1655.67 886.93C1659.44 906.493 1681.96 917.594 1700.73 916.76C1721.21 915.85 1740.05 904.687 1756.65 894.874L1758.13 894.085L1759.11 895.422C1781 924.9 1822.94 928.824 1865.35 928.584L1865.31 932.138C1822.76 932.187 1780.3 928.351 1757.22 898.86C1740.62 908.674 1721.7 919.314 1701.03 920.364C1680.36 921.414 1656.28 909.396 1652.16 887.744C1648.31 867.659 1662.08 847.579 1693.05 828.117C1719.91 811.074 1747.67 794.846 1775.6 779.662C1797.77 767.826 1821.4 756.385 1845.85 760.494C1878.05 765.969 1898.81 795.102 1917.16 824.54L1966.08 902.932Z" fill="white"/>
<path d="M1799.68 766.425L1796.25 767.761C1779.96 728.301 1763.68 688.841 1747.39 649.38C1741.48 634.911 1734.65 618.772 1723.32 606.517C1711.1 593.446 1694.2 587.62 1680.23 591.397C1662.17 596.409 1651.95 616.527 1651.28 634.051C1650.65 652.429 1657.56 670.273 1665.41 688.603C1683.29 729.834 1703.25 770.709 1724.8 810.133L1721.66 811.851C1700.11 772.427 1680.19 731.221 1662.31 689.99C1654.32 671.469 1647.13 653.242 1647.72 634.012C1648.68 608.057 1664.73 591.889 1679.22 588.022C1694.29 583.735 1712.79 590.148 1725.91 604.034C1737.85 616.723 1744.63 633.192 1750.67 647.853C1766.91 687.645 1783.39 726.965 1799.68 766.425Z" fill="white"/>
<path d="M1654.93 868.679C1623.19 838.192 1595.18 808.789 1564.4 773.195C1551.16 757.933 1538.77 742.634 1533.81 724.242C1526.98 699.29 1537.39 679.032 1550.04 670.644C1563.21 662.166 1582.5 662.428 1599.36 671.807C1614.33 680.218 1625.93 694.04 1636.26 706.142C1650.01 722.499 1665.68 740.678 1680.6 758.233C1695.57 775.457 1710.91 793.585 1724.52 809.751L1721.8 812.042C1708.19 795.876 1692.66 777.888 1677.88 760.524C1662.77 743.11 1647.29 724.791 1633.4 708.242C1623.39 696.191 1612.07 682.751 1597.71 674.774C1582.13 665.93 1564.22 665.541 1552 673.319C1536.16 683.756 1532.55 706.08 1537.24 722.906C1542.16 740.444 1554.08 755.502 1567.18 770.573C1597.82 805.975 1625.69 835.188 1657.43 865.675L1654.93 868.679Z" fill="white"/>
<path d="M1749.28 995.431C1745.46 998.231 1740.69 1000.55 1735.47 1001.44C1724.79 1003.69 1714.05 1001.86 1702.9 999.465C1685.36 995.574 1662.92 989.402 1643.73 976.444C1624.27 963.103 1611.4 944.339 1608.35 924.547C1604.64 900.246 1619.7 879.518 1652.57 863.062L1654.1 866.349C1622.7 882.015 1608.32 901.661 1611.62 924.204C1614.49 942.952 1626.8 960.951 1645.52 973.668C1664.23 986.385 1686.2 992.314 1703.41 996.154C1713.9 998.45 1724.3 1000.22 1734.47 998.062C1745.34 995.672 1753.91 988.517 1756.14 979.539C1757.73 972.497 1755.73 964.562 1749.83 954.499C1742.43 942.003 1726.16 926.613 1713.85 917.426L1715.83 914.51C1728 923.506 1744.74 939.138 1752.84 952.59C1756.88 959.316 1761.88 969.748 1759.59 980.241C1758.48 986.341 1754.63 991.51 1749.28 995.431Z" fill="white"/>
<path d="M1764.74 1079.85C1758.81 1084.19 1751.25 1087.09 1742.99 1087.85C1731.52 1088.62 1720.35 1087.41 1709.73 1083.74C1695.14 1079.45 1680.85 1073.18 1667.81 1065.41C1653.03 1056.86 1643.56 1047.94 1638.22 1037.46C1627.93 1017.4 1633.17 993.289 1639.58 970.38L1642.98 971.413C1636.67 993.66 1631.39 1016.91 1641.37 1035.74C1646.47 1045.51 1655.53 1053.85 1669.51 1062.11C1682.55 1069.89 1696.36 1075.91 1710.81 1080.01C1721.29 1083.49 1731.94 1084.79 1742.75 1083.92C1753.95 1082.76 1764.1 1077.38 1769.73 1069.43C1778.97 1056.79 1776.14 1038.89 1769.54 1026.69C1762.11 1013.34 1755.21 1007.53 1742.86 997.492L1744.98 994.767C1757.33 1004.81 1764.84 1011.05 1772.36 1024.92C1779.65 1038.08 1782.56 1057.68 1772.46 1071.55C1770.57 1074.98 1767.79 1077.61 1764.74 1079.85Z" fill="white"/>
<path d="M1845.56 1072.31C1834.48 1080.43 1821.73 1085.08 1807.83 1086.15C1792.94 1087.08 1778.22 1085.83 1763.72 1082.06L1764.75 1078.66C1778.92 1082.37 1793.31 1083.58 1807.68 1082.74C1822.24 1081.76 1835.8 1076.23 1846.9 1066.92L1849.19 1069.65C1848.04 1070.49 1846.9 1071.33 1845.56 1072.31Z" fill="white"/>
<path d="M2173.44 944.229L1867.14 1168.69L1916.29 1235.76L2222.59 1011.3L2173.44 944.229Z" fill="black"/>
<path d="M2224.91 1011.66L1915.74 1238.22L1864.63 1168.47L2173.8 941.911L2224.91 1011.66ZM1916.5 1233.25L2219.94 1010.89L2172.89 946.687L1869.46 1169.05L1916.5 1233.25Z" fill="white"/>
<path d="M1913.24 1134.61L1971.9 1091.62L1888.81 1030.34L1843.81 1071.53L1913.24 1134.61Z" fill="white"/>
<path d="M338.828 1227.15L217.506 993.372L-97.9056 1027.13L-98.1854 1025.03L218.765 990.991L340.788 1226.17L338.828 1227.15Z" fill="white"/>
<path d="M168.109 1154.59L166.15 1154.03L217.226 991.692L217.366 991.551L503.811 656.222L505.49 657.622L219.045 992.672L168.109 1154.59Z" fill="white"/>
<path d="M418.871 1017.32L217.366 993.092L217.226 992.532L82.8892 671.629L84.8482 670.789L218.905 991.271L419.151 1015.22L418.871 1017.32Z" fill="white"/>
<path d="M218.345 993.232H217.925L18.2396 963.537L18.6594 961.436L217.925 991.131L537.675 783.406L538.934 785.227L218.345 993.232Z" fill="white"/>
<path d="M248.571 842.236H238.636L234.438 831.59H244.373L248.571 842.236Z" fill="white"/>
<path d="M241.155 848.259H231.219L238.636 842.236H248.571L241.155 848.259Z" fill="white"/>
<path d="M244.373 831.59L248.571 842.236L241.155 848.259L236.957 837.613L244.373 831.59Z" fill="white"/>
<path d="M236.956 837.613H227.021L234.438 831.59H244.373L236.956 837.613Z" fill="white"/>
<path d="M241.154 848.259H231.219L227.021 837.613H236.956L241.154 848.259Z" fill="white"/>
<path d="M226.741 860.165H216.806L223.523 854.562H233.458L226.741 860.165Z" fill="white"/>
<path d="M207.57 740.964H216.526C214.567 741.244 212.888 741.945 211.348 743.205H201.413C202.952 741.945 204.632 741.244 206.591 740.964H207.57Z" fill="white"/>
<path d="M211.349 743.066H201.413L202.253 742.365H212.188C211.908 742.645 211.628 742.926 211.349 743.066Z" fill="white"/>
<path d="M212.188 742.506H202.253C203.092 741.945 203.932 741.525 204.772 741.245H214.707C213.867 741.525 213.028 741.945 212.188 742.506Z" fill="white"/>
<path d="M214.707 741.245H204.772C205.331 741.105 205.891 740.965 206.591 740.825H216.526C215.826 740.965 215.267 741.105 214.707 741.245Z" fill="white"/>
<path d="M233.458 854.562H223.523L200.434 798.814H210.369L233.458 854.562Z" fill="white"/>
<path d="M223.243 848.679L213.308 848.539L198.195 811.7H208.13L223.243 848.679Z" fill="white"/>
<path d="M199.454 818.844H189.519L198.195 811.7H208.13L199.454 818.844Z" fill="white"/>
<path d="M196.236 810.58H186.3L200.434 798.814H210.369L196.236 810.58Z" fill="white"/>
<path d="M199.454 818.844H189.519L186.3 810.58H196.236L199.454 818.844Z" fill="white"/>
<path d="M195.676 885.798H185.741L191.478 881.036H201.413L195.676 885.798Z" fill="white"/>
<path d="M223.243 848.679L213.308 848.539L183.642 834.952H193.577L223.243 848.679Z" fill="white"/>
<path d="M226.741 860.165H216.806L179.583 843.076H189.519L226.741 860.165Z" fill="white"/>
<path d="M192.317 802.036H182.382L179.164 793.771H189.099L192.317 802.036Z" fill="white"/>
<path d="M181.822 810.72H171.887L182.382 802.036H192.317L181.822 810.72Z" fill="white"/>
<path d="M193.577 834.952H183.642L171.887 810.72H181.822L193.577 834.952Z" fill="white"/>
<path d="M189.519 843.076H179.584L162.372 807.638H172.307L189.519 843.076Z" fill="white"/>
<path d="M172.307 807.639H162.372L179.164 793.771H189.099L172.307 807.639Z" fill="white"/>
<path d="M201.413 881.036H191.478L155.515 813.241H165.45L201.413 881.036Z" fill="white"/>
<path d="M195.676 885.798H185.741L153.836 825.567H163.771L195.676 885.798Z" fill="white"/>
<path d="M167.829 882.716H157.894L151.737 827.388H161.672L167.829 882.716Z" fill="white"/>
<path d="M161.672 827.388H151.737L153.836 825.567H163.771L161.672 827.388Z" fill="white"/>
<path d="M161.392 888.039H151.457L157.894 882.716H167.829L161.392 888.039Z" fill="white"/>
<path d="M159.013 862.686H149.078L144.46 822.346H154.395L159.013 862.686Z" fill="white"/>
<path d="M154.395 822.346H144.46L155.515 813.241H165.45L154.395 822.346Z" fill="white"/>
<path d="M159.013 862.686H149.078L135.924 829.349H145.719L159.013 862.686Z" fill="white"/>
<path d="M140.122 834.112H130.187L135.924 829.349H145.719L140.122 834.112Z" fill="white"/>
<path d="M165.45 813.241L201.413 881.036L195.676 885.798L163.771 825.567L161.672 827.388L167.829 882.716L161.392 888.039L140.122 834.112L145.719 829.349L159.013 862.686L154.395 822.346L165.45 813.241Z" fill="white"/>
<path d="M161.392 888.039H151.457L130.187 834.112H140.122L161.392 888.039Z" fill="white"/>
<path d="M366.395 1108.37C369.754 1117.2 367.655 1128.26 361.498 1133.16L215.966 1250.26C214.427 1251.52 212.608 1252.22 210.789 1252.5C206.031 1253.06 201.273 1249.7 198.754 1243.26L66.6568 900.085L60.7796 884.957C57.4212 876.133 59.5202 865.067 65.6773 860.165L211.209 743.066C212.748 741.805 214.427 741.105 216.386 740.825C221.144 740.264 225.902 743.626 228.42 750.069L366.395 1108.37ZM195.676 885.658L201.413 880.895L165.45 813.101L154.395 822.206L159.013 862.686L145.719 829.349L139.982 834.112L161.392 887.899L167.969 882.436L161.672 827.108L163.771 825.427L195.676 885.658ZM226.741 860.165L233.458 854.562L210.509 798.814L196.236 810.58L199.594 818.844L208.13 811.7L223.383 848.539L193.717 834.812L181.962 810.58L192.457 801.895L189.239 793.631L172.447 807.498L189.659 842.936L226.741 860.165ZM241.154 848.259L248.431 842.236L244.233 831.59L236.956 837.614L241.154 848.259Z" fill="black"/>
<path d="M209.809 1253.62C204.772 1253.62 200.154 1249.84 197.775 1243.54L59.8001 885.378C56.3017 876.273 58.5407 864.507 64.9776 859.465L210.509 742.365C212.188 740.965 214.147 740.124 216.246 739.844C221.704 739.284 226.741 743.206 229.4 749.789L367.375 1107.95C370.873 1117.2 368.634 1128.82 362.197 1134L216.666 1251.1C214.987 1252.5 213.028 1253.34 210.929 1253.62C210.509 1253.62 210.229 1253.62 209.809 1253.62ZM217.366 741.945C217.086 741.945 216.806 741.945 216.526 741.945C214.847 742.225 213.308 742.785 211.908 743.906L66.377 861.005C60.6397 865.628 58.5407 876.273 61.7591 884.537L199.734 1242.7C201.973 1248.44 206.171 1251.8 210.649 1251.38C212.328 1251.24 214.007 1250.54 215.267 1249.42L360.798 1132.32C366.535 1127.7 368.634 1117.05 365.416 1108.79L227.441 750.629C225.342 745.167 221.564 741.945 217.366 741.945ZM160.972 889.86L138.863 833.972L146.279 827.809L157.054 855.122L153.276 821.926L165.73 811.56L202.673 881.176L196.236 886.498L195.536 885.798L194.557 886.358L163.351 827.388L162.652 827.949L168.949 883.277L160.972 889.86ZM141.382 834.532L161.952 886.358L166.99 882.296L160.692 826.968L164.191 824.027L195.956 884.117L200.014 880.755L165.03 814.922L155.375 822.906L160.832 870.67L145.16 831.31L141.382 834.532ZM226.182 861.145L188.539 843.777L170.768 807.218L189.379 791.95L193.437 802.316L182.942 811L194.277 834.112L221.144 846.438L207.43 813.381L198.755 820.525L194.696 810.16L210.649 796.993L234.438 854.842L227.161 861.005L226.461 860.165L226.182 861.145ZM190.219 842.236L226.461 859.044L232.199 854.282L210.089 800.495L197.495 810.86L200.014 817.023L208.55 809.879L225.342 850.64L192.877 835.652L180.563 810.3L191.198 801.615L188.679 795.452L173.706 807.918L190.219 842.236ZM241.854 849.099L241.155 848.259L240.175 848.679L235.697 837.333L244.793 829.91L249.83 842.516L241.854 849.099ZM238.216 837.894L241.574 846.438L247.172 841.816L243.813 833.271L238.216 837.894Z" fill="white"/>
<path d="M189.099 793.771L192.318 802.036L181.823 810.72L193.577 834.952L223.243 848.679L208.13 811.701L199.454 818.844L196.236 810.58L210.369 798.814L233.458 854.562L226.741 860.165L189.519 843.076L172.307 807.639L189.099 793.771Z" fill="white"/>
<path d="M198.894 1243.26H188.959L56.7214 900.085H66.6568L198.894 1243.26Z" fill="white"/>
<path d="M65.6773 860.165H55.7419L201.413 743.065H211.349L65.6773 860.165Z" fill="white"/>
<path d="M66.6567 900.085H56.7214L50.9841 884.958H60.7795L66.6567 900.085Z" fill="white"/>
<path d="M60.7795 884.958H50.8442C47.4857 876.133 49.5848 865.068 55.7418 860.165H65.6772C59.66 865.068 57.4211 876.133 60.7795 884.958Z" fill="white"/>
<path d="M60.7795 884.957H50.8442C50.5643 884.257 50.2845 883.557 50.1445 882.716H60.0799C60.3597 883.557 60.4997 884.257 60.7795 884.957Z" fill="white"/>
<path d="M60.0798 882.857H50.1445C49.8646 881.736 49.5848 880.476 49.4448 879.355H59.3801C59.5201 880.476 59.7999 881.596 60.0798 882.857Z" fill="white"/>
<path d="M59.3802 879.215H49.4449C49.3049 878.094 49.3049 877.114 49.3049 875.993H59.2402C59.2402 877.114 59.2402 878.234 59.3802 879.215Z" fill="white"/>
<path d="M59.2402 876.133H49.3049C49.3049 875.013 49.3049 873.892 49.4449 872.912H59.3802C59.3802 873.892 59.2402 875.013 59.2402 876.133Z" fill="white"/>
<path d="M59.52 872.911H49.5847C49.7247 871.651 50.0045 870.39 50.4243 869.129H60.3596C59.9398 870.39 59.66 871.651 59.52 872.911Z" fill="white"/>
<path d="M60.2197 868.99H50.2844C51.124 865.488 53.0831 862.406 55.7418 860.165H65.6772C63.0184 862.546 61.0593 865.628 60.2197 868.99Z" fill="white"/>
<path d="M2177.53 5.61919C2191.42 -10.5972 2201.51 -29.6944 2207.06 -50.2836C2212.62 -70.8729 2213.5 -92.4366 2209.64 -113.407C2205.78 -134.377 2197.27 -154.227 2184.75 -171.512C2172.22 -188.797 2155.98 -203.084 2137.22 -213.333C2118.45 -223.583 2097.63 -229.537 2076.27 -230.763C2054.9 -231.989 2033.53 -228.455 2013.71 -220.42C1993.89 -212.385 1976.12 -200.05 1961.68 -184.312C1947.24 -168.574 1936.51 -149.828 1930.26 -129.438C1907.96 -143.954 1882.12 -152.13 1855.5 -153.082C1828.89 -154.035 1802.51 -147.729 1779.23 -134.845C1755.95 -121.961 1736.64 -102.987 1723.39 -79.9719C1710.14 -56.9564 1703.45 -30.7727 1704.04 -4.24588C1704.63 22.2809 1712.48 48.1437 1726.74 70.5519C1741 92.9602 1761.13 111.063 1784.96 122.908C1808.8 134.752 1835.42 139.888 1861.97 137.762C1888.51 135.636 1913.97 126.328 1935.6 110.843C1943.36 126.845 1955.51 140.33 1970.64 149.737C1985.78 159.145 2003.28 164.089 2021.11 163.999C2038.95 163.908 2056.4 158.786 2071.44 149.225C2086.47 139.664 2098.48 126.056 2106.08 109.976C2112.96 114.65 2120.69 117.928 2128.84 119.624C2136.99 121.32 2145.4 121.4 2153.58 119.859C2161.76 118.319 2169.55 115.189 2176.52 110.647C2183.49 106.105 2189.49 100.24 2194.18 93.3878C2198.87 86.5357 2202.16 78.8301 2203.86 70.7109C2205.56 62.5918 2205.64 54.2181 2204.1 46.068C2202.55 37.9179 2199.41 30.1511 2194.85 23.2109C2190.29 16.2706 2184.4 10.293 2177.53 5.61919Z" fill="#7431F4"/>
<path d="M-64.5263 71.6192C-78.4189 55.4028 -88.5094 36.3056 -94.0641 15.7164C-99.6187 -4.87286 -100.498 -26.4366 -96.6374 -47.4068C-92.777 -68.3771 -84.2743 -88.2265 -71.7474 -105.512C-59.2205 -122.797 -42.9843 -137.084 -24.2196 -147.333C-5.45496 -157.583 15.3666 -163.537 36.731 -164.763C58.0952 -165.989 79.4652 -162.455 99.287 -154.42C119.109 -146.385 136.884 -134.05 151.32 -118.312C165.756 -102.574 176.49 -83.8281 182.742 -63.4382C205.035 -77.9541 230.884 -86.1296 257.499 -87.0824C284.115 -88.0353 310.486 -81.7294 333.768 -68.8451C357.05 -55.9609 376.358 -36.9874 389.61 -13.9719C402.862 9.04359 409.554 35.2273 408.964 61.7541C408.374 88.2809 400.525 114.144 386.263 136.552C372.001 158.96 351.868 177.063 328.037 188.908C304.205 200.752 277.579 205.888 251.032 203.762C224.485 201.636 199.025 192.328 177.399 176.843C169.639 192.845 157.489 206.33 142.356 215.737C127.222 225.145 109.723 230.089 91.8851 229.999C74.0473 229.908 56.6001 224.786 41.5634 215.225C26.5266 205.664 14.5155 192.056 6.92047 175.976C0.0426636 180.65 -7.69177 183.928 -15.8413 185.624C-23.9908 187.32 -32.3958 187.4 -40.5764 185.859C-48.7569 184.319 -56.5528 181.189 -63.519 176.647C-70.4852 172.105 -76.4853 166.24 -81.1765 159.388C-85.8678 152.536 -89.1584 144.83 -90.8606 136.711C-92.5627 128.592 -92.643 120.218 -91.0969 112.068C-89.5508 103.918 -86.4085 96.1511 -81.8495 89.2109C-77.2905 82.2706 -71.4041 76.293 -64.5263 71.6192Z" fill="#7431F4"/>
<path d="M1136.26 204.604C1376.1 84.2225 1545.22 177.378 1545.22 177.378C1663.79 140.81 1768.39 166.434 1822.16 208.341C1855.77 234.232 1780.49 229.694 1611.63 229.694H1142.44C1138.88 229.694 1135.46 228.288 1132.94 225.785C1130.42 223.282 1129 219.888 1129 216.348C1128.99 213.914 1129.66 211.525 1130.95 209.45C1132.23 207.375 1134.07 205.697 1136.26 204.604Z" fill="#7431F4"/>
</g>
<defs>
<clipPath id="clip0_428_5715">
<rect width="1920" height="1080" fill="white"/>
</clipPath>
</defs>
</svg>
